<svg width="69" height="69" viewBox="0 0 69 69" fill="none" xmlns="http://www.w3.org/2000/svg">
<rect width="69" height="69" rx="10" fill="#4F4F4F"/>
<path d="M30.5012 53.0909V12.1818H33.122V53.0909H30.5012ZM36.8134 26.0845C36.7069 24.9126 36.2328 24.0018 35.3912 23.3519C34.5602 22.6914 33.3723 22.3612 31.8276 22.3612C30.8049 22.3612 29.9526 22.4943 29.2708 22.7607C28.589 23.027 28.0776 23.3945 27.7367 23.8633C27.3958 24.3214 27.22 24.8487 27.2093 25.4453C27.188 25.9354 27.2839 26.3668 27.497 26.7397C27.7207 27.1126 28.0403 27.4428 28.4558 27.7305C28.8819 28.0075 29.3933 28.2525 29.9899 28.4656C30.5865 28.6786 31.2576 28.8651 32.0034 29.0249L34.8159 29.6641C36.4352 30.0156 37.8627 30.4844 39.0985 31.0703C40.345 31.6562 41.389 32.354 42.2306 33.1637C43.0829 33.9734 43.7275 34.9055 44.1642 35.9602C44.601 37.0149 44.8248 38.1974 44.8354 39.5078C44.8248 41.5746 44.3027 43.3484 43.2694 44.8292C42.236 46.31 40.7498 47.4446 38.8109 48.233C36.8826 49.0213 34.5549 49.4155 31.8276 49.4155C29.0897 49.4155 26.7033 49.0053 24.6685 48.185C22.6337 47.3647 21.0517 46.1183 19.9224 44.4457C18.7931 42.7731 18.2125 40.6584 18.1806 38.1016H25.7551C25.8191 39.1562 26.1014 40.0352 26.6021 40.7383C27.1028 41.4414 27.79 41.9741 28.6635 42.3363C29.5478 42.6985 30.5705 42.8796 31.7317 42.8796C32.7971 42.8796 33.7026 42.7358 34.4483 42.4482C35.2047 42.1605 35.7853 41.761 36.1902 41.2496C36.595 40.7383 36.8027 40.1523 36.8134 39.4918C36.8027 38.8739 36.611 38.3466 36.2381 37.9098C35.8652 37.4624 35.29 37.0788 34.5123 36.7592C33.7452 36.429 32.7651 36.1254 31.5719 35.8484L28.1522 35.0494C25.3184 34.3995 23.0865 33.3501 21.4565 31.9013C19.8265 30.4418 19.0169 28.4709 19.0275 25.9886C19.0169 23.9645 19.5602 22.1907 20.6575 20.6673C21.7548 19.1438 23.2729 17.956 25.2118 17.1037C27.1507 16.2514 29.3613 15.8253 31.8436 15.8253C34.3791 15.8253 36.579 16.2567 38.4434 17.1197C40.3184 17.9719 41.7726 19.1705 42.8059 20.7152C43.8393 22.2599 44.3667 24.0497 44.388 26.0845H36.8134Z" fill="#A8A8A8"/>
<path d="M37.5012 57.0909V16.1818H40.122V57.0909H37.5012ZM43.8134 30.0845C43.7069 28.9126 43.2328 28.0018 42.3912 27.3519C41.5602 26.6914 40.3723 26.3612 38.8276 26.3612C37.8049 26.3612 36.9526 26.4943 36.2708 26.7607C35.589 27.027 35.0776 27.3945 34.7367 27.8633C34.3958 28.3214 34.22 28.8487 34.2093 29.4453C34.188 29.9354 34.2839 30.3668 34.497 30.7397C34.7207 31.1126 35.0403 31.4428 35.4558 31.7305C35.8819 32.0075 36.3933 32.2525 36.9899 32.4656C37.5865 32.6786 38.2576 32.8651 39.0034 33.0249L41.8159 33.6641C43.4352 34.0156 44.8627 34.4844 46.0985 35.0703C47.345 35.6562 48.389 36.354 49.2306 37.1637C50.0829 37.9734 50.7275 38.9055 51.1642 39.9602C51.601 41.0149 51.8248 42.1974 51.8354 43.5078C51.8248 45.5746 51.3027 47.3484 50.2694 48.8292C49.236 50.31 47.7498 51.4446 45.8109 52.233C43.8826 53.0213 41.5549 53.4155 38.8276 53.4155C36.0897 53.4155 33.7033 53.0053 31.6685 52.185C29.6337 51.3647 28.0517 50.1183 26.9224 48.4457C25.7931 46.7731 25.2125 44.6584 25.1806 42.1016H32.7551C32.8191 43.1562 33.1014 44.0352 33.6021 44.7383C34.1028 45.4414 34.79 45.9741 35.6635 46.3363C36.5478 46.6985 37.5705 46.8796 38.7317 46.8796C39.7971 46.8796 40.7026 46.7358 41.4483 46.4482C42.2047 46.1605 42.7853 45.761 43.1902 45.2496C43.595 44.7383 43.8027 44.1523 43.8134 43.4918C43.8027 42.8739 43.611 42.3466 43.2381 41.9098C42.8652 41.4624 42.29 41.0788 41.5123 40.7592C40.7452 40.429 39.7651 40.1254 38.5719 39.8484L35.1522 39.0494C32.3184 38.3995 30.0865 37.3501 28.4565 35.9013C26.8265 34.4418 26.0169 32.4709 26.0275 29.9886C26.0169 27.9645 26.5602 26.1907 27.6575 24.6673C28.7548 23.1438 30.2729 21.956 32.2118 21.1037C34.1507 20.2514 36.3613 19.8253 38.8436 19.8253C41.3791 19.8253 43.579 20.2567 45.4434 21.1197C47.3184 21.9719 48.7726 23.1705 49.8059 24.7152C50.8393 26.2599 51.3667 28.0497 51.388 30.0845H43.8134Z" fill="#F9F9F9"/>
</svg>
