<svg width="69" height="69" viewBox="0 0 69 69" fill="none" xmlns="http://www.w3.org/2000/svg">
<rect width="69" height="69" rx="10" fill="#ECECEC"/>
<path d="M33.6788 51.3636V17.7273H35.8336V51.3636H33.6788ZM38.8688 29.1584C38.7812 28.1948 38.3914 27.4459 37.6994 26.9116C37.0162 26.3685 36.0395 26.0969 34.7694 26.0969C33.9284 26.0969 33.2277 26.2064 32.6671 26.4254C32.1065 26.6444 31.686 26.9466 31.4057 27.332C31.1254 27.7087 30.9809 28.1423 30.9721 28.6328C30.9546 29.0357 31.0334 29.3905 31.2086 29.6971C31.3926 30.0037 31.6554 30.2752 31.997 30.5117C32.3474 30.7395 32.7678 30.9409 33.2583 31.1161C33.7489 31.2913 34.3007 31.4446 34.9139 31.576L37.2264 32.1016C38.5578 32.3906 39.7316 32.776 40.7477 33.2578C41.7726 33.7396 42.631 34.3133 43.323 34.979C44.0237 35.6448 44.5537 36.4112 44.9128 37.2784C45.272 38.1456 45.4559 39.1179 45.4647 40.1953C45.4559 41.8946 45.0267 43.3531 44.177 44.5707C43.3274 45.7882 42.1054 46.7211 40.5112 47.3693C38.9257 48.0175 37.0118 48.3416 34.7694 48.3416C32.5182 48.3416 30.556 48.0044 28.883 47.3299C27.2099 46.6554 25.9092 45.6306 24.9806 44.2553C24.0521 42.8801 23.5748 41.1413 23.5485 39.0391H29.7765C29.829 39.9062 30.0611 40.6289 30.4728 41.207C30.8845 41.7852 31.4495 42.2231 32.1678 42.521C32.8948 42.8188 33.7357 42.9677 34.6905 42.9677C35.5665 42.9677 36.311 42.8494 36.9242 42.6129C37.5461 42.3764 38.0235 42.0479 38.3564 41.6275C38.6892 41.207 38.86 40.7253 38.8688 40.1822C38.86 39.6741 38.7024 39.2405 38.3958 38.8814C38.0892 38.5135 37.6162 38.1982 36.9767 37.9354C36.3461 37.6638 35.5402 37.4142 34.5591 37.1864L31.7473 36.5295C29.4173 35.9951 27.5822 35.1323 26.242 33.9411C24.9018 32.741 24.2361 31.1205 24.2449 29.0795C24.2361 27.4152 24.6828 25.9568 25.585 24.7042C26.4873 23.4516 27.7355 22.4749 29.3297 21.7741C30.9239 21.0734 32.7415 20.723 34.7825 20.723C36.8672 20.723 38.6761 21.0778 40.209 21.7873C41.7507 22.488 42.9463 23.4735 43.796 24.7436C44.6457 26.0137 45.0793 27.4853 45.0968 29.1584H38.8688Z" fill="#D9D9D9"/>
</svg>
